<svg xmlns="http://www.w3.org/2000/svg" xmlns:xlink="http://www.w3.org/1999/xlink" width="32" height="32">
	<path fill="#D736F7" transform="scale(0.03125 0.03125)" d="M488.411 163.211C493.692 162.752 499.207 162.876 504.501 163.101Q507.032 163.196 509.557 163.387Q512.083 163.579 514.599 163.866Q517.115 164.153 519.619 164.536Q522.122 164.919 524.61 165.396Q527.097 165.874 529.564 166.446Q532.031 167.018 534.475 167.684Q536.918 168.349 539.335 169.107Q541.752 169.865 544.137 170.714Q546.523 171.564 548.875 172.503Q551.227 173.443 553.542 174.471Q555.856 175.499 558.13 176.615Q560.404 177.73 562.633 178.932Q564.863 180.133 567.045 181.418Q569.227 182.704 571.359 184.071Q573.491 185.438 575.569 186.886Q577.647 188.333 579.669 189.859C634.627 230.535 658.058 302.093 688.918 360.531C699.069 379.753 709.306 398.227 724.09 414.362C717.856 420.075 709.995 424.895 703.11 429.838Q678.381 447.388 653.349 464.503Q653.365 463.452 653.365 462.401L653.413 360.275L653.417 330.049C653.415 319.066 653.824 307.976 651.335 297.201C648.918 286.734 642.814 276.483 635.203 268.957C617.786 251.732 600.948 251.493 578.195 251.729L549.744 251.896C524.688 227.597 507.359 221.323 473.046 219.058C410.113 217.047 335.81 257.835 285.149 292.783C259.382 310.559 234.794 330.336 210.999 350.665C194.868 364.446 180.626 380.517 164.353 394.051C170.923 385.862 177.185 377.428 183.77 369.254C194.671 355.721 206.074 342.477 217.554 329.43C237.79 306.432 260.461 285.059 283.679 265.118C340.797 216.063 411.012 168.168 488.411 163.211Z"/>
	<path fill="#A8A8A8" transform="scale(0.03125 0.03125)" d="M393.489 535.104C399.688 529.105 407.808 524.522 414.982 519.729L452.393 494.789L490.965 468.523Q543.4 434.118 595.06 398.558C595.922 419.469 595.108 440.582 595.129 461.519C583.017 479.274 572.426 498.228 561.087 516.499L485.539 637.282L455.557 685.63C447.775 698.292 440.261 711.175 431.782 723.391C426.565 719.841 421.648 715.762 416.475 712.125C409.122 706.956 400.746 702.154 394.271 695.925C393.115 688.57 393.493 680.932 393.5 673.504L393.542 641.916L393.489 535.104Z"/>
	<path fill="#D736F7" transform="scale(0.03125 0.03125)" d="M867.444 337.392C847.334 360.511 828.137 384.527 808.303 407.901L619.153 629.273C626.026 635.199 633.247 640.846 639.837 647.076C628.03 656.415 617.338 666.58 606.016 676.439C593.852 687.032 581.302 697.205 569.242 707.912C554.928 720.622 534.322 741.199 517.627 749.591C508.082 754.389 497.456 755.845 486.911 754.606C466.146 752.167 447.598 736.001 431.782 723.391C440.261 711.175 447.775 698.292 455.557 685.63L485.539 637.282L561.087 516.499C572.426 498.228 583.017 479.274 595.129 461.519C596.12 470.953 595.524 480.965 595.522 490.47C595.52 503.841 595.839 517.303 595.449 530.664C607.147 522.034 619.26 513.951 631.169 505.615L689.889 464.352L772.983 405.119L831.34 363.247C843.178 354.628 855.109 345.243 867.444 337.392Z"/>
	<path fill="#2D4FFF" transform="scale(0.03125 0.03125)" d="M388.759 271.154C390.698 270.929 392.785 270.981 394.74 270.969Q466.634 270.807 538.524 271.451L576.238 271.411C583.966 271.396 592.242 270.764 599.846 272.158C607.812 273.619 614.86 277.735 620.56 283.435C625.705 288.58 629.876 295.532 631.227 302.727C632.86 311.43 632.288 320.385 632.217 329.195L632.048 360.704L632.01 487.056C624.204 493.588 617.27 500.874 610.148 508.119L609.776 304.3C601.29 303.841 592.649 304.094 584.147 304.062L537.563 303.915L375.636 304.019L375.602 304.856C375.272 313.666 375.568 322.588 375.557 331.409L375.547 384.325L375.485 536.791L375.486 636.685L375.475 666.722C375.465 672.879 375.118 679.28 375.787 685.396C376.679 693.545 379.144 700.816 384.837 706.869C391.658 714.121 410.696 725.34 419.847 731.647C433.784 741.252 449.353 754.78 464.557 761.674Q467.699 763.086 470.968 764.168Q474.238 765.25 477.602 765.991Q480.966 766.731 484.388 767.122Q487.81 767.513 491.254 767.551C503.268 767.771 514.94 765.316 525.554 759.593C538.385 752.674 549.421 742.37 560.547 733.04Q579.693 717.259 598.462 701.03L638.714 665.921C646.625 659.059 654.925 652.534 662.463 645.265C657.364 640.642 651.605 636.663 646.359 632.174C667.128 604.794 689.913 578.721 711.995 552.387Q722.844 539.499 733.53 526.476C739.27 519.409 744.828 512.126 750.914 505.354C757.973 552.313 738.832 603.86 720.536 646.205Q714.378 660.337 706.914 673.826C670.419 739.346 621.742 789.905 557.662 828.769C538.386 840.46 514.497 852.9 492.819 859.063C480.165 856.379 467.005 849.959 455.382 844.379C401.338 818.433 355.707 781.053 317.669 734.945C272.981 680.778 241.949 612.506 235.473 542.269C234.046 526.789 233.541 511.24 235.037 495.744Q235.598 489.808 236.656 483.94Q237.714 478.072 239.262 472.314Q240.809 466.555 242.836 460.947Q244.862 455.34 247.352 449.922C262.699 415.904 287.275 385.32 311.243 357.011C323.502 342.531 336.807 327.164 351.491 315.082C342.844 327.582 336.057 341.57 329.267 355.128C306.487 400.614 283.487 455.717 285.708 507.551C288.16 564.785 311.211 615.15 353.551 654.038L353.418 403.914Q353.56 372.004 353.232 340.095C353.116 329.061 351.954 317.242 353.089 306.307Q353.218 305.019 353.436 303.742Q353.654 302.466 353.96 301.208Q354.265 299.95 354.657 298.716Q355.049 297.482 355.525 296.278Q356.002 295.074 356.56 293.906Q357.119 292.737 357.756 291.611Q358.394 290.484 359.109 289.404Q359.823 288.324 360.61 287.296C367.328 278.383 377.792 272.706 388.759 271.154Z"/>
</svg>
