<svg xmlns="http://www.w3.org/2000/svg" viewBox="0 0 300 300">
	<path fill="#2D4FFF" d="M143 48h11l1 1h2l1 1h1l2 1h1l2 1h1l1 1 1 1 2 1 1 1c16 12 23 33 32 50 3 5 6 11 10 15l-6 5-15 10V87l-5-8c-5-5-10-5-17-5h-8c-7-7-12-9-22-10-19 0-41 12-55 22l-22 17-14 12 6-7a352 352 0 0 1 29-30c17-15 37-29 60-30Z"/>
	<path fill="#CABEBE" d="m115 157 7-5 11-7 11-8 30-20v18l-10 16-22 36-9 14-7 11-4-3-6-5-1-7v-40Z"/>
	<path fill="#2D4FFF" d="m254 99-17 21-56 64 6 6-9 8-11 9c-4 4-10 10-15 13l-9 1c-6-1-12-5-17-9l7-11 9-14 22-36 10-16v20l11-7 17-12 24-17 18-13 10-7Z"/>
	<path fill="#D736F7" d="M114 79h2l42 1h18l6 3 3 6v54l-6 6V89h-69v112l3 6 10 7 13 9 2 1h2l2 1h2l10-2 10-8 11-10 12-10 7-6-5-4 20-23 6-8 5-6c2 14-4 29-9 41l-4 8a120 120 0 0 1-63 55l-11-5c-15-7-29-18-40-32a106 106 0 0 1-24-70v-3l1-4 1-3 1-3c5-10 12-19 19-27l12-13-7 12c-6 13-13 30-12 45 0 16 7 31 20 43v-74l-1-18V90l1-1v-3l1-1 1-1 8-5Z"/>
</svg>